<svg width="30" height="30" viewBox="0 0 30 30" fill="none" xmlns="http://www.w3.org/2000/svg">
<path d="M19.2076 4.29749L23.2213 11.25H27.5001V13.75H26.0413L25.0951 25.1037C25.069 25.4161 24.9266 25.7073 24.696 25.9196C24.4654 26.1319 24.1635 26.2498 23.8501 26.25H6.15006C5.83662 26.2498 5.53468 26.1319 5.30409 25.9196C5.07349 25.7073 4.93108 25.4161 4.90506 25.1037L3.95756 13.75H2.50006V11.25H6.77756L10.7926 4.29749L12.9576 5.54749L9.66506 11.25H20.3338L17.0426 5.54749L19.2076 4.29749ZM23.5326 13.75H6.46631L7.30006 23.75H22.6988L23.5326 13.75ZM16.2501 16.25V21.25H13.7501V16.25H16.2501ZM11.2501 16.25V21.25H8.75006V16.25H11.2501ZM21.2501 16.25V21.25H18.7501V16.25H21.2501Z" fill="#2D2D2D"/>
</svg>
